<?xml version="1.0" encoding="UTF-8"?>
<svg width="424px" height="293px" viewBox="0 0 424 293" version="1.1" xmlns="http://www.w3.org/2000/svg" xmlns:xlink="http://www.w3.org/1999/xlink">
    <!-- Generator: Sketch 56.2 (81672) - https://sketch.com -->
    <title>movie-logo-lockup</title>
    <desc>Created with Sketch.</desc>
    <g id="Components" stroke="none" stroke-width="1" fill="none" fill-rule="evenodd">
        <g id="hero-1-desk" transform="translate(-508.000000, -194.000000)" fill="#FFFFFF">
            <g id="Stacked-Group-Copy-2" transform="translate(315.000000, 154.000000)">
                <g id="Stacked-Group">
                    <g id="movie-logo-lockup" transform="translate(192.000000, 40.000000)">
                        <g id="Asset-1" transform="translate(1.000000, 0.000000)">
                            <path d="M303.385889,82.6002339 C303.297038,77.9334698 302.482578,62.9789509 302.393728,60.846851 C302.302085,59.7428111 301.86087,58.6975481 301.135017,57.8648931 C299.884488,56.1122007 298.498038,54.4619933 296.988676,52.9297528 C292.309233,48.4568159 290.547038,46.1308887 289.865854,45.7432342 C289.111187,45.3268535 288.213965,45.2615499 287.407666,45.5643167 C286.45993,45.9668811 282.965157,48.6357334 277.678571,51.3940444 C274.518913,53.0280867 271.493396,54.9126671 268.630662,57.0299449 C268.036447,57.4714494 267.663265,58.1521337 267.608885,58.8936686 C267.490418,59.5795189 267.253484,60.8021216 266.972125,63.2473271 C265.651815,62.7292448 264.361454,62.1368898 263.107143,61.4730621 C263.477352,57.4772386 264.928571,50.0521634 265.20993,41.0168309 C265.358014,35.8580438 265.047038,24.0345807 264.987805,22.4988724 C264.93267,21.4901834 264.604968,20.5158106 264.04007,19.6809222 C258.709059,12.0023806 256.813589,8.3793017 251.275261,0.372744738 C251.053136,0.0894587371 250.74216,0 250.149826,0 C241.857143,0.372744738 220.385017,1.96809222 209.278746,2.50484464 C210.641115,3.99582359 215.853659,8.18547444 216.253484,8.55821918 C216.695333,9.00086401 216.981347,9.57680905 217.067944,10.198296 C217.156794,10.8245072 219.703833,34.5310725 220.162892,38.2883395 C221.021777,45.3853993 221.777003,52.5420982 220.459059,52.5420982 C219.141115,52.5420982 216.016551,48.7997411 216.016551,48.7997411 C216.016551,48.7997411 221.732578,77.2923488 221.569686,81.0794353 C219.940767,80.5575927 216.416376,75.0409706 216.416376,75.0409706 L225.567944,179.961159 C225.567944,179.961159 225.70122,165.573212 226.263937,157.119362 C226.826655,148.665511 226.263937,125.674616 227.922474,125.808804 C229.58101,125.942992 231.29878,129.208236 233.031359,132.264743 C232.942509,124.809848 231.905923,99.3588373 233.031359,98.7326261 C234.512195,98.3598814 236.925958,106.858461 238.406794,111.331398 C237.044425,90.6217006 236.925958,73.6841798 236.925958,62.8596726 C239.635889,67.1387822 243.130662,73.0728784 243.634146,74.0121951 C243.935659,74.8735472 244.727049,75.4637772 245.633275,75.5031741 C248.951896,74.9338594 252.182655,73.9314287 255.243902,72.5212162 C257.998366,71.1063666 260.279463,68.9081509 261.804007,66.1994654 C263.284843,66.8107668 266.483449,68.5104828 266.483449,68.5104828 C266.364983,71.0600568 266.305749,74.6980454 266.305749,78.6640494 C266.305749,93.9614935 267.283101,104.010692 267.283101,104.010692 C267.281623,104.898036 267.609012,105.754013 268.20122,106.411168 C270.008893,109.178473 272.180819,111.686273 274.657666,113.866062 C277.260905,116.253115 279.73265,118.781608 282.061847,121.440236 C282.706958,122.001548 283.607935,122.156567 284.401568,121.8428 C288.238221,120.620995 291.959801,119.0593 295.522648,117.176036 C297.8864,115.873265 300.139907,114.377259 302.260453,112.703099 C303.054966,112.203501 303.510649,111.303099 303.445122,110.362262 C303.563589,104.368527 303.45993,87.2520882 303.385889,82.6002339 Z M248.491289,64.1120949 C248.017422,64.7084865 246.773519,66.3634731 246.358885,66.8853157 C246.17589,67.1863707 245.85056,67.3699364 245.5,67.3699364 C245.14944,67.3699364 244.82411,67.1863707 244.641115,66.8853157 C244.211672,66.3336535 241.990418,63.03859 241.486934,62.3080104 C240.983449,61.5774307 241.116725,61.0406782 242.271777,61.2643251 C243.426829,61.4879719 246.284843,62.0843635 247.94338,62.472018 C248.891115,62.6211159 249.098432,63.3069663 248.491289,64.1120949 Z M247.780488,55.5538757 C243.566069,55.5085693 239.361054,55.9639797 235.252613,56.9106666 C234.956446,40.092424 234.749129,21.5893752 234.541812,9.91501002 L246.803136,10.3623037 C247.632404,10.3623037 247.824913,10.6754093 247.85453,11.4805379 L249.335366,53.9883478 C249.356876,54.4098186 249.199978,54.8207246 248.90359,55.1191426 C248.607202,55.4175607 248.199091,55.5755331 247.780488,55.5538757 Z M278.878049,57.9543518 C279.796167,57.2237721 284.579268,53.9137989 286.28223,52.631557 C286.948606,52.1246241 287.600174,52.2140829 287.348432,53.0341213 C286.590999,55.6121742 285.293234,57.9966902 283.542683,60.0268126 C282.317587,61.4199936 280.859026,62.5857501 279.233449,63.4709739 C278.950054,63.6521172 278.589457,63.6569869 278.301338,63.4835619 C278.013219,63.3101368 277.846769,62.9880274 277.87108,62.6509355 C277.87108,62.6509355 277.69338,60.9512195 277.69338,60.2355496 C277.69338,59.5198797 277.752613,58.9085783 278.878049,57.9543518 Z M292.709059,107.69341 C292.682309,108.638918 292.25685,109.528199 291.539199,110.138615 C290.887631,110.556089 284.727352,113.687145 284.727352,113.687145 C284.030706,114.088543 283.14801,113.924661 282.639373,113.29949 L278.285714,108.647636 C277.766867,107.847135 277.475008,106.919162 277.441638,105.963874 C277.441638,105.963874 276.864111,69.7927247 276.864111,68.6894003 C276.864111,67.5860758 277.456446,67.1984213 278.344948,66.9896843 C279.233449,66.7809472 288.503484,65.2452389 289.525261,65.021592 C290.547038,64.7979452 290.902439,65.1408704 291.080139,66.2143752 C291.25784,67.2878801 292.013066,73.1325175 292.560976,86.9986218 C293.108885,100.864726 292.768293,107.69341 292.768293,107.69341 L292.709059,107.69341 Z" id="Shape" fill-rule="nonzero"></path>
                            <path d="M149.156794,178.410541 C149.062457,179.525033 149.474247,180.622621 150.276858,181.395973 C151.07947,182.169325 152.186631,182.535312 153.288328,182.391455 C155.568815,182.391455 157.96777,180.408453 159.211672,179.126211 L159.211672,182.108169 L165.919861,182.108169 L163.372822,179.856791 L163.372822,179.856791 L163.372822,168.107877 L164.128049,165.125919 L150.045296,165.125919 L150.045296,170.672361 L150.297038,170.672361 C152.044425,168.033328 153.702962,166.095055 156.457317,166.095055 C159.211672,166.095055 159.344948,168.242065 159.344948,171.015286 C153.332753,173.072837 149.156794,174.876921 149.156794,178.410541 Z M159.285714,171.924783 L159.285714,178.201804 C158.537177,179.078778 157.469971,179.616036 156.324042,179.692783 C155.65164,179.786791 154.972597,179.574297 154.471583,179.11309 C153.97057,178.651884 153.699678,177.989917 153.732578,177.307217 C153.702962,175.592591 153.880662,174.101612 159.285714,171.924783 L159.285714,171.924783 Z" id="Shape" fill-rule="nonzero"></path>
                            <path d="M167.37108,182.04853 L176.59669,182.04853 L174.123693,179.066572 L174.123693,169.047193 C174.931299,167.790524 176.309673,167.023867 177.796167,167.004552 C180.446864,167.004552 180.831882,168.704268 180.831882,171.373121 L180.831882,179.066572 L178.344077,182.04853 L187.569686,182.04853 L184.963415,179.066572 L184.963415,170.195247 C184.963415,166.930003 183.304878,164.648806 179.795296,164.648806 C177.48605,164.6896 175.353126,165.900741 174.123693,167.86932 L174.123693,164.723354 L167.652439,166.989642 L169.99216,169.658495 L169.99216,179.021843 L167.37108,182.04853 Z" id="Path" fill-rule="nonzero"></path>
                            <path d="M198.557491,165.06628 C196.108341,164.949153 193.724285,165.880694 191.994759,167.630588 C190.265234,169.380482 189.35168,171.785386 189.479965,174.25071 C189.479965,178.410541 191.671603,182.391455 196.188153,182.391455 C198.446534,182.351048 200.485515,181.02097 201.445122,178.962203 L201.445122,182.346726 L208.123693,182.04853 L205.576655,179.618234 L205.576655,157.447377 L199.105401,159.415469 L201.445122,162.084322 L201.445122,165.06628 L198.557491,165.06628 Z M201.519164,177.709781 C200.795836,178.308559 199.877994,178.616602 198.942509,178.574549 C195.980836,178.574549 193.641115,176.502088 193.641115,171.119654 C193.641115,169.047193 194.263066,166.303792 197.283972,166.303792 C198.926393,166.386989 200.46054,167.153915 201.519164,168.420982 L201.519164,177.709781 Z" id="Shape" fill-rule="nonzero"></path>
                            <path d="M109.648084,114.805379 C112.056233,111.824492 114.733148,109.074339 117.644599,106.590085 C118.918118,105.412212 117.644599,105.591129 116.889373,105.650768 C114.505226,105.859506 113.02439,105.471851 112.817073,101.386569 C112.698606,98.4940695 112.358014,68.5850317 112.29878,65.7819913 C112.165505,58.9085783 113.409408,54.7040177 108.344948,48.9637487 C106.538328,46.9211076 100.09669,39.9135065 98.9120209,38.318159 C97.7273519,36.7228116 96.8388502,36.618443 95.03223,37.468301 C93.2256098,38.318159 82.8449477,43.9242399 80.5348432,45.9817908 C77.5731707,48.6208236 77.3510453,51.3791346 79.054007,54.7785667 C80.5333536,57.7187717 82.1951807,60.5622319 84.0296167,63.2920565 C84.6071429,64.1120949 85.7770035,64.1419145 85.7770035,62.4571083 C85.7770035,59.9671734 85.0365854,57.8648931 86.6506969,56.1502673 C89.3805048,53.7076227 92.2535641,51.4322678 95.2543554,49.3364935 C97.8013937,47.8455145 98.956446,49.9477949 99.2674216,55.0320331 C99.6080139,60.6679335 100.644599,89.8463916 100.748258,102.310976 C100.748258,105.382392 100.27439,107.484673 99.2674216,108.39417 C98.260453,109.303667 94.8249129,110.988473 93.9364111,109.497494 C93.0540519,107.381349 92.4612356,105.154347 92.174216,102.877548 C90.989547,96.1979619 88.7979094,87.4160959 88.5461672,82.0038423 C88.3996398,81.0327271 88.7374982,80.051246 89.4494774,79.3797193 C90.2491289,78.5895005 96.424216,73.6394504 96.9869338,73.1325175 C97.5496516,72.6255847 97.9050523,71.4477113 95.8022648,71.3135232 C93.9956446,71.1942449 79.2761324,70.8662295 70.1393728,73.6096308 C70.1393728,68.212287 70.3022648,27.3892833 70.2430314,24.153859 C72.108885,21.7086535 75.6777003,17.8321083 76.1663763,17.1462579 C76.6550523,16.4604076 76.2848432,16.2367608 75.3222997,16.4007685 C71.3956393,16.9480226 67.4392837,17.251761 63.4756098,17.3102656 C56.7526132,17.4891831 53.5243902,17.5488223 52.5618467,17.4891831 C51.5993031,17.4295439 51.184669,17.7724691 51.8510453,18.8012446 C52.5174216,19.83002 55.3902439,22.6479703 56.4120209,23.9898513 L56.4120209,82.0038423 C49.7630662,87.1775393 43.869338,93.7080271 36.4799652,96.0935934 L36.4799652,31.9814985 C36.4799652,30.3265119 37.9608014,29.5064734 40.2709059,26.494696 C40.8336237,25.7641163 40.4930314,25.570289 39.3675958,25.5851988 C33.7552265,25.5851988 23.9372822,25.7044771 18.8876307,25.5851988 C17.3031359,25.5851988 16.9181185,25.7044771 17.8214286,26.7332526 C18.7247387,27.7620281 20.9311847,29.4170147 21.6716028,30.2817825 C22.4120209,31.1465503 22.9155052,32.0262279 22.9155052,34.4863431 C22.9155052,35.9773221 22.8118467,95.8699465 22.8118467,97.1074591 C20.8086928,96.7688837 18.8670766,96.1306467 17.0513937,95.2139158 C13.0235192,93.216004 7.58885017,88.2957735 5.66376307,86.4767792 C5.07142857,85.9400267 5.08623693,84.9858002 5.93031359,84.1210324 C8.22501202,81.9852159 10.7537847,80.1194149 13.46777,78.5596809 C9.75156088,78.5766409 6.077987,79.3579924 2.67247387,80.8557885 C1.76659268,81.1912468 1.04072663,81.891925 0.669692249,82.7890727 C0.298657866,83.6862205 0.316082648,84.6985277 0.717770035,85.5821918 C1.92454109,88.9587012 4.0052718,91.9493271 6.74477352,94.2447795 C12.3719512,99.4632058 19.5243902,102.281156 22.9006969,103.876504 L22.9006969,142.224482 C22.9006969,144.028567 22.6341463,144.669688 21.7012195,145.474816 C20.7682927,146.279945 17.2587108,149.42591 16.5479094,150.052122 C15.837108,150.678333 15.6149826,151.185266 17.1698606,151.244905 C21.0940767,151.423822 28.3501742,151.498371 31.7116725,151.990394 C33.695993,152.27368 39.7970383,153.481373 40.7003484,153.839208 C41.9294425,154.211953 41.7961672,153.615561 41.0409408,152.810433 C39.5261989,151.232398 38.1303484,149.542915 36.8649826,147.756014 C36.4588869,146.924702 36.3191798,145.986942 36.4651568,145.072252 L36.4651568,103.041555 C40.0932056,102.534622 44.4468641,100.059597 47.2456446,98.6580772 C49.5261324,97.5100234 52.9616725,94.632434 55.8493031,92.6941614 C56.4120209,92.3363264 56.989547,92.2170481 56.989547,93.49929 C56.989547,96.8689024 56.989547,140.882601 56.989547,142.701595 C57.0143737,147.193357 56.0003935,151.629277 54.0278746,155.658202 C52.3397213,158.833988 49.5853659,159.847853 48.8893728,160.697711 C48.1933798,161.547569 47.6454704,162.859631 49.8519164,162.859631 C56.0121951,162.859631 56.2491289,161.845765 68.0365854,162.382518 C72.4790941,162.576345 75.8702091,164.663715 77.7360627,164.261151 C79.6019164,163.858587 78.8466899,162.606164 78.0026132,161.860675 C75.8554007,159.982041 73.5601045,158.327055 72.1829268,154.793435 C71.1732086,152.162013 70.6998142,149.352898 70.7909408,146.533411 L70.7909408,83.9122954 C70.7909408,81.2881724 71.3684669,79.6630053 72.9973868,79.0964333 C74.6263066,78.5298613 81.7195122,76.1144754 84.4738676,75.2497077 C86.5470383,74.6234965 85.8066202,75.7417307 85.021777,76.3083027 C84.2369338,76.8748747 81.630662,79.2902606 80.6681185,80.1997578 C77.9878049,82.8984297 77.6175958,85.1647177 78.0914634,89.1456315 C78.5949477,93.3203725 82.7709059,112.688189 83.7778746,115.4465 C84.9625436,118.726654 87.9686411,119.919437 91.3745645,118.070623 C93.4181185,116.982208 96.587108,114.77556 97.771777,114.208988 C98.956446,113.642416 99.5783972,113.776604 99.8597561,115.312312 C100.378049,118.130262 100.837108,119.397594 103.828397,119.218677 C105.812718,119.02485 108.167247,116.713832 109.648084,114.805379 Z" id="Path" fill-rule="nonzero"></path>
                            <path d="M118.414634,39.5705814 C119.436411,39.6749499 119.89547,40.017875 119.89547,41.2702974 C120.162021,49.0233879 121.376307,99.1799198 121.376307,106.172611 C121.376307,108.662546 119.89547,109.154569 116.933798,112.404903 C116.341463,113.046024 116.45993,113.34422 117.8223,113.29949 C120.236063,113.210032 135.977352,112.270715 137.250871,112.225986 C138.52439,112.181256 138.598432,111.972519 137.70993,111.167391 C135.873693,109.497494 133.119338,107.902147 133.000871,105.784957 C132.793554,102.02769 130.83885,45.758144 130.616725,41.79214 C132.097561,41.0466505 133.208188,40.1520631 133.474739,41.3001169 C134.126307,44.1329769 136.436411,53.9436184 136.851045,55.6880638 C137.280488,57.8947127 137.635889,59.8926245 137.043554,60.5784748 C134.970383,62.9044019 136.71777,63.6946208 138.317073,62.2483712 C139.057491,61.5625209 144.906794,56.5081022 145.898955,55.6880638 C146.891115,54.8680254 147.083624,53.6752422 146.683798,52.1842633 C145.202962,45.7283244 142.241289,36.5289843 139.279617,31.8920398 C138.776132,31.1018209 138.317073,30.9229034 137.073171,31.7578517 C136.051394,32.443702 131.149826,35.9176829 130.335366,36.2307885 C130.157666,33.7408537 129.654181,27.6427497 129.550523,26.3754176 C129.550523,25.3764617 128.824913,25.7790261 128.262195,26.2412295 C127.699477,26.703433 113.453833,37.6770381 112.580139,38.4076178 C112.106272,38.7952723 112.20993,39.1381975 113.157666,39.2723856 C114.105401,39.4065737 117.466899,39.4662128 118.414634,39.5705814 Z" id="Path" fill-rule="nonzero"></path>
                            <path d="M148.357143,33.5321166 C149.216028,34.0390494 150.696864,34.5907117 150.637631,36.2755179 C150.637631,37.3490227 149.956446,98.5686184 149.912021,99.7166722 C149.748275,101.221059 149.174246,102.650479 148.253484,103.846684 C147.498258,104.607083 146.12108,106.426078 145.617596,106.97774 C145.114111,107.529402 145.617596,107.603951 146.491289,107.395214 C151.841717,106.067767 157.391492,105.759301 162.85453,106.485717 C164.142857,106.634815 164.142857,106.172611 163.476481,105.367482 C162.810105,104.562354 161.729094,102.758269 161.284843,102.132058 C160.762037,101.324447 160.522278,100.36409 160.603659,99.4035667 C160.603659,91.3224607 160.514808,47.2193034 160.603659,39.3916639 C160.603659,37.0359171 161.31446,35.7536752 162.439895,35.4405697 C163.150697,35.2467424 163.446864,35.4405697 164.054007,36.8122703 C164.912892,38.7654527 166.852787,46.608002 166.630662,49.0233879 C166.650352,50.4119182 166.302811,51.7807277 165.623693,52.9893919 C164.424216,54.3610925 165.623693,55.8371617 167.10453,54.5698296 C167.91899,53.8839793 175.041812,47.6367775 175.722997,47.0403859 C176.404181,46.4439943 176.581882,45.4003091 175.989547,43.9391497 C175.397213,42.4779903 169.710801,27.3743735 169.251742,26.3903274 C168.792683,25.4062813 168.36324,25.361552 167.208188,26.2561393 C166.053136,27.1507267 161.684669,30.8185349 160.662892,31.5043852 C160.662892,28.5224273 160.662892,23.1250835 160.662892,22.0963081 C160.662892,21.0675326 160.070557,21.6341046 159.433798,22.3199549 C158.797038,23.0058052 149.171603,30.4457902 148.149826,31.5640244 C147.276132,32.3989726 147.527875,33.0550033 148.357143,33.5321166 Z" id="Path" fill-rule="nonzero"></path>
                            <path d="M163.876307,62.0247244 C165.993902,63.962997 165.697735,63.8735383 166.482578,67.7799031 C167.045296,70.6127631 173.88676,101.759313 174.020035,103.190653 C174.43088,104.434293 174.279319,105.796786 173.605401,106.918101 C172.642857,108.960742 158.60453,134.516121 157.760453,136.290386 C157.337219,137.573633 156.023436,138.331343 154.70993,138.049741 C152.666376,137.930463 120.813589,134.709948 119.169861,134.665219 C117.526132,134.620489 117.067073,133.412797 117.689024,131.817449 C118.310976,130.222102 119.554878,127.180505 120.013937,126.315737 C120.399026,125.375589 121.172361,124.651407 122.131533,124.332735 C123.434669,123.810892 129.535714,120.948212 130.305749,120.545648 C131.075784,120.143084 131.549652,119.636151 129.624564,119.457234 C127.699477,119.278316 120.650697,119.188857 119.125436,119.084489 C117.600174,118.98012 117.00784,119.472143 115.763937,120.575468 C114.025784,121.951713 112.410459,123.478324 110.936411,125.137863 C110.270035,126.226278 107.352787,132.279653 106.849303,133.412797 C106.345819,134.545941 106.271777,135.231791 107.752613,136.141288 C110.820804,137.93102 114.048218,139.428495 117.392857,140.614225 C122.116725,142.34376 128.810105,143.178709 133.37108,144.043476 C137.932056,144.908244 157.671603,146.294855 161.344077,146.742148 C163.580139,147.010525 163.876307,146.861427 165.283101,144.326762 C168.540941,138.362847 181.02439,116.743652 184.533972,110.228074 C192.69338,95.1244571 200.586237,76.1293852 209.160279,56.1949967 C209.826655,54.7040177 209.95993,54.0628968 207.88676,53.9883478 C205.813589,53.9137989 193.744774,53.1683094 192.589721,53.0490311 C191.434669,52.9297528 190.679443,52.8253842 191.656794,53.690152 C192.634146,54.5549198 194.070557,55.6433344 194.618467,56.1651771 C195.166376,56.6870197 195.447735,57.37287 194.885017,59.2962329 C193.729965,63.1578684 192.086237,67.9439108 190.442509,72.3273889 C189.302265,75.3093468 183.749129,89.5780154 181.957317,93.4247411 C181.483449,94.423697 180.817073,94.632434 180.476481,93.5141998 C180.135889,92.3959656 175.930314,67.3475192 175.426829,64.529569 C175.160279,63.03859 175.337979,62.472018 175.974739,62.0098146 C176.611498,61.5476111 177.455575,60.7872118 178.018293,60.3548279 C178.58101,59.922444 178.49216,59.5944287 177.425958,59.6689776 C176.359756,59.7435266 164.957317,60.3995573 164.290941,60.4442867 C162.884146,60.5784748 162.573171,60.8319412 163.876307,62.0247244 Z" id="Path" fill-rule="nonzero"></path>
                            <path d="M320.91899,125.152773 C320.445122,124.67566 320.134146,124.437103 320.163763,123.005763 C320.267422,118.085533 320.489547,106.97774 320.815331,94.4535165 C321.378049,73.2070665 322.148084,47.9647928 322.296167,42.4034414 C322.296167,41.1062897 322.770035,40.584447 324.028746,40.5546275 C325.287456,40.5248079 328.678571,40.4800785 329.315331,40.4502589 C329.66999,40.4485478 330.007059,40.2944895 330.241806,40.026811 C330.476552,39.7591325 330.586651,39.4032915 330.544425,39.0487387 C330.544425,38.1243318 330.381533,36.0667808 330.381533,35.2914718 C330.381533,34.5161627 329.655923,34.068869 328.574913,34.0390494 C327.493902,34.0092299 324.635889,34.0390494 323.554878,33.9048613 C322.473868,33.7706732 322.074042,33.2488306 321.955575,32.085867 C321.837108,30.9229034 321.718641,17.7575593 321.718641,16.8629719 C321.718641,15.9683846 321.526132,15.6105496 320.815331,16.5945957 C316.372822,22.6777898 314.13676,24.0494905 308.968641,29.1784581 C305.577526,32.5927999 300.290941,37.4384815 297.462544,39.8687771 C296.692509,40.5397177 297.255226,40.658996 298.143728,40.7186351 C299.03223,40.7782743 306.614111,41.0019211 307.665505,41.1062897 C308.716899,41.2106582 309.146341,41.8815987 309.146341,43.0147427 C309.146341,45.4897678 309.309233,116.788381 309.309233,119.263406 C309.309233,121.738431 309.871951,121.872619 310.96777,122.633019 C312.330139,123.572335 324.976481,132.42875 325.939024,133.069871 C327.627178,134.188106 328.797038,132.950593 327.419861,131.698171 C326.4277,130.788674 321.392857,125.629886 320.91899,125.152773 Z" id="Path" fill-rule="nonzero"></path>
                            <path d="M370.852787,126.986677 C369.56446,126.867399 355.037456,126.300827 354.000871,126.241188 C352.357143,126.151729 352.520035,127.463791 354.489547,127.732167 C355.970383,127.970723 362.648955,129.029318 363.50784,129.223146 C364.366725,129.416973 364.988676,130.087913 363.922474,131.146509 C362.708188,132.44366 361.419861,134.277564 360.783101,134.978324 C360.189082,135.644993 359.199238,135.771952 358.458188,135.27652 C357.643728,134.814317 350.461672,130.982501 349.573171,130.401019 C348.684669,129.819537 348.092334,129.64062 348.092334,127.419061 C348.092334,125.838623 347.6777,102.355705 347.514808,89.7867524 C347.351916,77.2177999 346.937282,54.3014534 346.996516,52.5122787 C347.055749,50.7231039 347.914634,50.8125626 349.188153,50.6932843 C350.461672,50.574006 354.711672,50.3801788 355.689024,50.2012613 C356.666376,50.0223438 356.90331,49.8285165 356.90331,48.4269963 C356.914322,47.7147916 356.879697,47.0026133 356.799652,46.2948964 C356.799652,45.4897678 356.281359,45.2213916 355.111498,45.1617524 C353.941638,45.1021133 349.188153,45.1617524 348.329268,45.0424741 C347.470383,44.9231958 346.611498,44.8784664 346.522648,43.417307 C346.404181,41.5386736 345.885889,25.6597477 345.797038,23.7960241 C345.797038,22.6777898 345.574913,22.7076094 344.997387,23.7960241 C343.664634,26.21141 339.547909,32.935725 337.430314,35.7238557 C335.312718,38.5119863 326.827526,48.4419061 326.057491,49.2470347 C325.287456,50.0521634 325.716899,50.2758102 326.486934,50.3205396 C327.256969,50.365269 331.49216,50.3205396 332.410279,50.4099983 C333.328397,50.4994571 333.891115,50.5292766 333.891115,52.4526395 C333.891115,54.3760023 334.453833,85.0901687 334.513066,88.7132476 C334.5723,92.3363264 334.912892,118.681924 335.031359,125.286961 C335.031359,126.569203 335.164634,127.180505 336.837979,128.000543 C338.511324,128.820581 357.925087,139.436351 359.050523,139.928375 C360.175958,140.420398 360.945993,140.837872 362.101045,139.317073 C363.256098,137.796275 367.787456,130.371199 368.779617,129.491522 C369.682003,128.816157 370.632277,128.208201 371.622822,127.672528 C371.859756,127.4787 372.170732,127.091046 370.852787,126.986677 Z" id="Path" fill-rule="nonzero"></path>
                            <path d="M380.833624,95.8550368 C380.330139,95.0648179 379.811847,94.5429753 379.471254,95.8550368 C379.130662,97.1670982 375.176829,111.957609 374.554878,114.238807 C374.140244,115.729786 373.370209,115.625418 372.866725,115.088665 C371.904181,114.0748 367.831882,109.691321 367.432056,109.124749 C366.936222,108.21303 366.700471,107.181006 366.750871,106.142792 C366.647213,104.547444 365.966028,78.9324257 365.966028,77.3370782 C365.966028,75.7417307 366.099303,75.2646174 368.513066,75.8460992 C370.319686,76.2486635 380.359756,78.8280571 381.425958,79.0815236 C382.544544,79.5215192 383.813561,79.0551555 384.387631,77.9931089 C385.513066,76.50213 388.519164,71.8502756 389.141115,70.8811393 C389.763066,69.912003 389.674216,69.062145 389.052265,67.0642332 C388.430314,65.0663214 384.994774,55.1364016 384.358014,53.1533996 C384.138203,51.6543765 383.179577,50.3693245 381.810976,49.7390578 C379.900697,48.6506432 373.592334,44.4759021 372.244774,43.6260441 C370.452962,42.4929001 370.156794,42.4779903 367.965157,44.341714 C366.869338,45.2661209 358.413763,53.8988891 357.45122,54.7785667 C356.488676,55.6582442 356.148084,56.3590043 355.970383,58.6402021 C355.851916,60.2951888 354.667247,102.057509 354.667247,103.071375 C354.508175,104.445186 354.989279,105.815815 355.970383,106.783912 C356.932927,107.857417 363.285714,117.310224 364.085366,118.055713 C364.928578,118.806558 366.010377,119.229552 367.135889,119.248496 C368.616725,119.412504 373.236934,119.755429 374.258711,119.755429 C375.280488,119.755429 375.932056,119.412504 376.776132,118.160082 C377.620209,116.90766 384.772648,106.470807 385.335366,105.665678 C385.898084,104.86055 386.031359,103.846684 385.11324,102.340795 C384.446864,101.207651 381.337108,96.6452556 380.833624,95.8550368 Z M367.03223,52.1842633 C367.104194,51.0360287 367.984607,50.1055779 369.120209,49.9776144 C370.719512,49.6346893 371.045296,49.8881557 371.682056,51.2896759 C372.318815,52.6911961 379.160279,69.4497995 379.737805,70.8215002 C380.315331,72.1932008 379.87108,72.6404945 378.627178,72.4764868 C377.383275,72.3124791 370.660279,71.1942449 368.735192,70.9855079 C366.810105,70.7767708 366.365854,70.2400184 366.410279,69.1665135 C366.558362,65.9758186 366.824913,55.2705897 367.03223,52.1842633 Z" id="Shape" fill-rule="nonzero"></path>
                            <path d="M414.196864,41.8666889 C413.426829,40.2713415 412.819686,40.37571 411.353659,41.2553876 C410.376307,41.8666889 407.044425,44.0286084 406.36324,44.4460825 C406.070545,44.6466533 405.691219,44.6662343 405.379686,44.4968541 C405.068153,44.3274739 404.876367,43.9973801 404.882404,43.6409539 C404.763937,42.4779903 404.452962,39.3469345 404.29007,37.9454143 C404.20122,37.185015 403.860627,36.7973605 402.631533,38.1541514 C401.787456,39.0934681 391.273519,51.9606164 390.429443,52.8253842 C389.585366,53.690152 389.259582,54.3163632 391.303136,54.5251002 C393.34669,54.7338373 393.805749,54.6891079 393.820557,58.222728 C393.820557,66.8256766 394.753484,105.218385 394.753484,110.078976 C394.753484,117.533871 391.169861,122.722477 386.327526,124.258186 C386.016551,124.362554 385.868467,124.481833 386.579268,124.67566 C395.936811,127.385857 405.579849,128.972341 415.307491,129.402063 C416.40331,129.402063 416.255226,129.282785 415.425958,128.92495 C410.302265,126.733211 408.021777,123.527606 407.325784,119.7107 C406.81254,116.985088 406.510527,114.223426 406.422474,111.450677 C406.422474,109.124749 405.504355,58.5656532 405.400697,55.4345974 C405.400697,53.3323171 405.682056,52.8999332 406.689024,52.0202556 C407.029617,51.7369696 409.132404,51.5878717 409.650697,52.9595723 C410.672474,56.0906281 412.834495,62.5763866 413.678571,65.1259606 C414.033252,66.1569291 413.800391,67.3006184 413.071429,68.1079185 C412.123693,69.5988974 411.753484,70.1207401 411.412892,70.6873121 C410.61324,71.9993735 410.820557,73.9823755 412.375436,72.6554043 C416.07263,69.5628029 419.469179,66.1230202 422.519164,62.3825593 C423.407666,61.3686936 423.629791,60.8021216 422.622822,58.7893 C421.926829,57.3430505 415.114983,43.6707735 414.196864,41.8666889 Z" id="Path" fill-rule="nonzero"></path>
                            <path d="M417.30662,125.242232 L417.30662,125.868443 L417.380662,125.868443 C417.389949,125.764018 417.420175,125.662575 417.469512,125.570247 C417.511304,125.50594 417.574195,125.458448 417.647213,125.436059 C417.73559,125.423004 417.825386,125.423004 417.913763,125.436059 L418.224739,125.436059 L418.224739,127.4787 C418.249934,127.571425 418.249934,127.669261 418.224739,127.761986 C418.170902,127.838084 418.079851,127.878191 417.987805,127.866355 L417.898955,127.866355 L417.898955,127.866355 L419.02439,127.866355 L419.02439,127.866355 L418.93554,127.866355 C418.858695,127.892488 418.775452,127.892488 418.698606,127.866355 C418.674081,127.763447 418.674081,127.656157 418.698606,127.553249 L418.698606,125.421149 L419.068815,125.421149 C419.156052,125.397039 419.248129,125.397039 419.335366,125.421149 C419.403485,125.459862 419.459809,125.516571 419.498258,125.585157 C419.507185,125.664422 419.507185,125.744449 419.498258,125.823714 L419.557491,125.823714 L419.557491,125.197503 L417.30662,125.242232 Z" id="Path" fill-rule="nonzero"></path>
                            <path d="M421.393728,127.344512 L420.431185,125.257142 L419.675958,125.257142 L419.675958,125.257142 C419.753662,125.236941 419.835188,125.236941 419.912892,125.257142 C419.957534,125.280023 419.993824,125.316562 420.016551,125.36151 C420.037867,125.444636 420.037867,125.531851 420.016551,125.614977 L420.016551,127.359422 C420.041746,127.452147 420.041746,127.549983 420.016551,127.642708 C419.956052,127.718779 419.860966,127.7582 419.764808,127.747077 L419.675958,127.747077 L419.675958,127.747077 L420.608885,127.747077 L420.608885,127.747077 L420.505226,127.747077 C420.433709,127.774609 420.354618,127.774609 420.283101,127.747077 C420.283101,127.747077 420.283101,127.597979 420.283101,127.433971 L420.283101,125.644796 L421.319686,127.896174 L421.319686,127.896174 L422.341463,125.644796 L422.341463,127.433971 C422.366659,127.526696 422.366659,127.624532 422.341463,127.717257 C422.287626,127.793354 422.196576,127.833462 422.10453,127.821625 L422.015679,127.821625 L422.015679,127.821625 L423.141115,127.821625 L423.141115,127.821625 L423.052265,127.821625 C422.975419,127.847759 422.892176,127.847759 422.815331,127.821625 C422.790806,127.718718 422.790806,127.611428 422.815331,127.50852 L422.815331,125.719345 C422.792053,125.621328 422.792053,125.519166 422.815331,125.421149 C422.872809,125.34971 422.961145,125.310798 423.052265,125.316781 L423.141115,125.316781 L423.141115,125.316781 L422.385889,125.316781 L421.393728,127.344512 Z" id="Path" fill-rule="nonzero"></path>
                            <polygon id="Path" fill-rule="nonzero" points="317.942509 269.89701 319.541812 269.89701 319.541812 274.191029 320.178571 274.191029 320.178571 269.89701 321.777875 269.89701 321.777875 269.330438 317.942509 269.330438"></polygon>
                            <path d="M325.006098,272.71496 C324.887631,273.057885 324.79878,273.311351 324.754355,273.490269 L324.517422,272.774599 L323.377178,269.330438 L322.414634,269.330438 L322.414634,274.191029 L323.021777,274.191029 L323.021777,270.046108 L324.428571,274.191029 L325.006098,274.191029 L326.412892,270.120657 L326.412892,274.191029 L327.020035,274.191029 L327.020035,269.330438 L326.16115,269.330438 L325.006098,272.71496 Z" id="Path" fill-rule="nonzero"></path>
                            <path d="M224.33885,218.413507 C224.297508,220.09155 224.512263,221.766039 224.97561,223.378466 C224.97561,223.378466 225.168118,221.887487 226.219512,221.887487 L226.367596,221.887487 C228.0627,223.201893 230.151782,223.896011 232.290941,223.85558 C234.615507,223.848703 236.863876,223.020237 238.643728,221.514743 C240.001222,220.101763 240.639836,218.139826 240.376307,216.191948 C240.154181,212.643418 238.08101,210.973522 235.326655,209.586911 C232.5723,208.200301 229.210801,207.723187 228.351916,206.351487 C227.539978,205.293886 227.457602,203.842429 228.144599,202.698588 C228.858783,201.494131 230.173652,200.78348 231.565331,200.849774 C232.202825,200.843769 232.834135,200.975981 233.416376,201.237429 C235.596208,202.240986 236.916985,204.513017 236.718641,206.918059 L237.340592,207.439901 L238.554878,200.193744 L237.799652,200.46212 C237.596873,201.056698 237.302002,201.615256 236.925958,202.117107 C235.44015,200.688007 233.498185,199.837202 231.446864,199.71663 C229.872819,199.623091 228.326694,200.165299 227.150956,201.223155 C225.975217,202.281012 225.266911,203.7672 225.182927,205.352531 C225.182927,209.065068 229.299652,210.720055 230.691638,211.450635 C232.13915,212.075626 233.510519,212.866062 234.778746,213.806382 C236.330492,214.989505 237.137668,216.916127 236.896341,218.8608 C236.32927,221.09683 234.359897,222.684336 232.068815,222.752255 C230.737708,222.733412 229.442867,222.312692 228.351916,221.544562 C227.076638,220.515504 226.167309,219.097698 225.760453,217.504009 C225.633182,215.960253 225.935731,214.411332 226.634146,213.031073 C225.245156,214.484978 224.429268,216.398223 224.33885,218.413507 Z" id="Path" fill-rule="nonzero"></path>
                            <path d="M206.317073,213.642374 L206.687282,214.372954 C207.33424,214.447279 207.970369,214.597393 208.582753,214.820247 L206.25784,221.67875 C206.25784,221.67875 205.961672,222.543518 204.199477,222.573338 L204.08101,223.318827 L210.211672,223.318827 L210.04878,222.618067 C210.04878,222.618067 207.620209,222.618067 207.945993,221.529653 C208.271777,220.441238 209.900697,215.849023 209.900697,215.849023 C209.900697,215.849023 210.152439,215.043894 210.59669,215.043894 L215.527875,215.043894 L217.704704,221.350735 C217.816579,221.586314 217.800573,221.863214 217.662309,222.084135 C217.524046,222.305056 217.282867,222.439094 217.023519,222.43915 C216.637507,222.511372 216.246215,222.551267 215.853659,222.558428 L215.735192,222.558428 L215.527875,223.333737 L223.909408,223.333737 L223.716899,222.603157 L223.628049,222.603157 C222.800105,222.662154 222.019976,222.207407 221.658537,221.455104 C221.199477,220.202681 218.474739,212.166305 218.474739,212.166305 L215.690767,203.518627 L214.891115,200.805045 C214.76178,200.396361 214.793595,199.953239 214.979965,199.567533 C215.019688,199.486951 215.06945,199.411797 215.128049,199.343886 C215.128049,199.343886 213.750871,199.835909 213.39547,200.834865 C213.04007,201.833821 210.715157,208.692324 210.715157,208.692324 L208.997387,213.672193 L206.317073,213.642374 Z M212.699477,207.678458 C212.926772,207.889513 213.103922,208.149414 213.21777,208.438857 L215.039199,213.657284 L210.59669,213.657284 L212.699477,207.678458 Z" id="Shape" fill-rule="nonzero"></path>
                            <path d="M165.801394,221.619111 L165.549652,221.052539 L162.928571,214.179126 L159.285714,203.503717 L158.560105,200.864684 C158.451043,200.4277 158.48746,199.966752 158.663763,199.552623 C158.711864,199.473693 158.766346,199.398891 158.826655,199.328976 C158.081369,199.591758 157.458969,200.122828 157.079268,200.819955 C156.723868,201.804001 154.413763,208.677414 154.413763,208.677414 L152.681185,213.657284 L150.045296,213.657284 L150.415505,214.387863 C151.067095,214.46329 151.708003,214.613359 152.325784,214.835157 L149.986063,221.69366 C149.986063,221.69366 149.704704,222.558428 147.942509,222.588248 L147.809233,223.333737 L153.939895,223.333737 L153.777003,222.632977 C153.777003,222.632977 151.36324,222.632977 151.689024,221.544562 C152.014808,220.456148 153.62892,215.863933 153.62892,215.863933 C153.62892,215.863933 153.89547,215.058804 154.339721,215.058804 L159.270906,215.058804 L161.344077,221.365645 C161.455952,221.601224 161.439946,221.878124 161.301682,222.099045 C161.163419,222.319966 160.92224,222.454004 160.662892,222.454059 C160.271924,222.526492 159.875695,222.566386 159.478223,222.573338 L159.344948,222.573338 L159.122822,223.348647 L170.969512,223.348647 L170.836237,222.603157 L167.311847,222.603157 C166.657802,222.610225 166.062989,222.222711 165.801394,221.619111 Z M154.339721,213.657284 L156.368467,207.54427 C156.680172,207.785977 156.924937,208.104298 157.079268,208.468677 L158.722997,213.657284 L154.339721,213.657284 Z" id="Shape" fill-rule="nonzero"></path>
                            <path d="M140.671603,210.228032 L145.439895,210.228032 C145.722852,210.23576 145.990362,210.359658 146.180314,210.570957 C146.446864,210.898973 146.743031,211.241898 146.93554,213.105621 L147.675958,213.538005 C147.675958,213.538005 147.675958,210.302581 147.675958,209.243986 C147.675958,208.185391 147.675958,205.665636 147.675958,205.665636 L146.93554,206.11293 C146.93554,206.11293 146.84669,208.915971 145.543554,208.915971 L140.449477,208.915971 C140.449477,208.915971 139.931185,208.811602 139.931185,208.483587 L139.931185,201.84873 C139.931185,201.84873 139.842334,201.371617 140.316202,201.371617 L149.852787,201.371617 C150.040127,201.356646 150.225929,201.415441 150.37108,201.535625 C151.031963,202.431359 151.450391,203.484594 151.585366,204.592132 L152.340592,205.009606 C152.340592,205.009606 151.970383,202.161836 151.970383,201.789091 C151.970383,201.416346 151.970383,199.224607 151.970383,199.224607 C151.500461,199.751607 150.822265,200.041132 150.119338,200.014826 L133.756098,200.014826 L133.963415,200.805045 L133.963415,200.805045 C134.111498,200.805045 136.051394,200.805045 136.051394,201.997828 C136.051394,203.190611 136.184669,208.24503 136.184669,208.24503 C136.184669,208.24503 136.184669,219.457192 136.184669,220.441238 L136.184669,221.440194 C136.184669,221.440194 136.332753,222.513699 134.141115,222.513699 L133.933798,223.259188 L142.196864,223.259188 L141.974739,222.498789 C141.974739,222.498789 139.945993,222.498789 139.945993,221.514743 L139.945993,211.07789 C139.905185,210.863532 139.96376,210.642141 140.105074,210.47663 C140.246387,210.311119 140.454989,210.219583 140.671603,210.228032 L140.671603,210.228032 Z" id="Path" fill-rule="nonzero"></path>
                            <path d="M188.843206,199.284247 L188.843206,204.72632 L189.61324,204.308846 C189.61324,204.308846 189.61324,201.90837 190.812718,201.461076 L195.49216,201.580354 L195.49216,201.580354 C195.640244,201.580354 196.30662,201.580354 196.30662,202.251295 C196.30662,202.922235 196.30662,220.485967 196.30662,220.485967 L196.30662,221.484923 C196.30662,221.484923 196.454704,222.558428 194.263066,222.558428 L194.055749,223.303917 L202.126307,223.303917 L201.889373,222.543518 C201.889373,222.543518 199.860627,222.543518 199.860627,221.559472 L199.860627,202.176746 C199.860627,202.176746 199.860627,201.580354 200.64547,201.580354 C201.430314,201.580354 205.087979,201.490895 205.087979,201.490895 L205.191638,201.490895 C205.35453,201.490895 205.695122,201.490895 205.813589,201.654903 C206.368433,202.418444 206.650275,203.348585 206.61324,204.293936 L207.368467,204.74123 L207.368467,199.314066 C207.368467,199.314066 206.953833,200.149014 205.458188,200.149014 C203.962544,200.149014 198.972125,200.253383 198.66115,200.253383 L190.871951,200.149014 C190.097681,200.201487 189.344692,199.88052 188.843206,199.284247 Z" id="Path" fill-rule="nonzero"></path>
                            <path d="M244.937282,201.580354 C245.085366,201.580354 245.736934,201.580354 245.736934,202.251295 C245.736934,202.922235 245.736934,220.485967 245.736934,220.485967 L245.736934,221.484923 C245.736934,221.484923 245.885017,222.558428 243.69338,222.558428 L243.486063,223.303917 L251.55662,223.303917 L251.319686,222.543518 C251.319686,222.543518 249.290941,222.543518 249.290941,221.559472 L249.290941,202.176746 C249.290941,202.176746 249.290941,201.580354 250.075784,201.580354 C250.860627,201.580354 254.518293,201.490895 254.518293,201.490895 L254.621951,201.490895 C254.841915,201.47093 255.061898,201.528939 255.243902,201.654903 C255.798747,202.418444 256.080589,203.348585 256.043554,204.293936 L256.79878,204.74123 L256.79878,199.314066 C256.79878,199.314066 256.384146,200.149014 254.888502,200.149014 C253.392857,200.149014 248.402439,200.253383 248.091463,200.253383 L240.139373,200.074465 L239.902439,201.565444 L244.892857,201.565444 L244.937282,201.580354 Z" id="Path" fill-rule="nonzero"></path>
                            <path d="M166.186411,200.059556 L166.37892,200.894504 L166.586237,200.894504 C167.119338,200.894504 168.466899,200.998872 168.466899,201.982918 L168.466899,221.559472 L170.066202,221.559472 L170.066202,204.264116 L173.931185,209.944746 L179.691638,218.130221 L183.541812,223.363557 L183.793554,223.706482 C183.793554,223.706482 184.252613,223.706482 184.637631,223.706482 L184.948606,223.706482 C185.327132,223.805551 185.713682,223.870418 186.103659,223.900309 C186.423524,223.912716 186.737692,223.812548 186.99216,223.617023 C187.339817,223.320181 187.758351,223.119759 188.206446,223.035541 C188.547038,222.931173 188.961672,222.364601 188.961672,222.364601 C188.749954,222.470718 188.516983,222.526811 188.280488,222.528608 C188.192111,222.541664 188.102314,222.541664 188.013937,222.528608 C187.747387,222.528608 187.421603,222.528608 187.243902,222.528608 C187.002446,222.490235 186.77093,222.404088 186.562718,222.275142 C185.837108,221.872578 185.807491,221.619111 185.807491,221.619111 C185.807491,221.619111 185.807491,221.455104 185.807491,221.455104 L185.91115,221.455104 C186.270758,221.614944 186.658372,221.701107 187.051394,221.70857 C187.346822,221.726054 187.637854,221.630155 187.865854,221.440194 L187.865854,221.440194 C187.329291,221.446049 186.806837,221.267198 186.385017,220.933261 C185.983115,220.560951 185.634282,220.134467 185.348432,219.665929 C185.618395,219.905645 185.965834,220.038152 186.325784,220.038674 C186.550043,220.041782 186.772316,219.996005 186.977352,219.904485 L186.977352,219.904485 C186.708139,219.849376 186.451824,219.743111 186.222125,219.59138 C185.787893,219.302862 185.460049,218.878461 185.289199,218.383687 C185.497284,218.501106 185.731847,218.562716 185.970383,218.562604 C186.073613,218.576024 186.178129,218.576024 186.281359,218.562604 C185.692699,218.109938 185.308691,217.438693 185.215157,216.698881 L185.215157,202.042558 C185.215157,202.042558 185.215157,201.356707 186.429443,201.118151 L187.332753,201.118151 L187.554878,200.298112 L181.439024,200.298112 L181.66115,201.13306 L181.66115,201.13306 C181.986934,201.13306 183.64547,201.13306 183.64547,201.923279 L183.64547,217.727656 L179.839721,212.553959 L175.530488,205.755095 C175.530488,205.755095 173.101916,201.282158 173.013066,201.073421 C172.940299,200.750635 172.905507,200.420349 172.909408,200.089375 C172.909408,200.089375 170.421603,200.298112 168.466899,200.298112 L166.097561,200.298112 L166.186411,200.059556 Z" id="Path" fill-rule="nonzero"></path>
                            <path d="M258.635017,200.849774 C258.931185,200.849774 260.634146,200.849774 260.663763,201.982918 C260.69338,203.116062 260.663763,221.365645 260.663763,221.365645 C260.663763,221.365645 260.797038,222.588248 258.575784,222.588248 L258.383275,223.333737 L266.483449,223.333737 L266.305749,222.618067 C266.305749,222.618067 264.188153,222.498789 264.188153,221.619111 L264.188153,201.938189 C264.188153,201.938189 264.188153,200.894504 266.290941,200.894504 L266.483449,200.074465 L258.353659,200.074465 L258.590592,200.864684 L258.635017,200.849774 Z" id="Path" fill-rule="nonzero"></path>
                            <path d="M267.534843,211.122619 C267.534843,211.122619 267.74216,210.511318 267.993902,210.511318 L267.993902,210.511318 C268.29007,210.645506 268.230836,211.167349 268.230836,211.167349 C268.196647,213.213371 268.58493,215.244239 269.37108,217.131265 C271.357998,221.055255 275.362375,223.526176 279.736934,223.527564 L280.166376,223.527564 C283.491542,223.731211 286.55785,221.721432 287.718641,218.577514 C288.023067,217.607158 288.023067,216.565913 287.718641,215.595556 C287.067073,222.275142 280.31446,222.260232 280.31446,222.260232 C278.4442,222.181248 276.650549,221.490281 275.205575,220.29214 C271.651568,217.146174 272.006969,211.137529 272.006969,211.137529 C273.132404,201.580354 278.77439,201.118151 279.870209,201.118151 L280.047909,201.118151 C286.37108,201.446166 286.37108,207.797736 286.37108,207.797736 L287.037456,208.334489 C287.037456,208.334489 287.8223,203.175702 287.985192,202.370573 C288.148084,201.565444 288.207317,200.655947 288.207317,200.655947 L287.437282,200.954143 C287.307733,201.776304 286.971265,202.551376 286.45993,203.205521 C285.688035,202.197769 284.70121,201.377425 283.5723,200.805045 C281.602631,200.057486 279.49831,199.73739 277.397213,199.865728 L277.397213,199.865728 C276.820975,199.840331 276.244739,199.916007 275.694251,200.089375 C275.837577,200.133377 275.935506,200.266523 275.935506,200.417391 C275.935506,200.568258 275.837577,200.701404 275.694251,200.745406 C275.161443,200.843503 274.62167,200.898349 274.080139,200.909414 C273.510626,200.914643 272.953038,201.074309 272.466028,201.371617 C272.466028,201.371617 272.999129,201.490895 272.851045,201.833821 C272.702962,202.176746 272.54007,202.146926 271.370209,202.504761 C270.699546,202.6779 270.105448,203.071431 269.682056,203.622995 C269.805992,203.530615 269.957392,203.483307 270.111498,203.488807 C270.392857,203.488807 270.659408,203.622995 270.585366,203.891372 C270.511324,204.159748 269.652439,204.72632 268.986063,205.38235 C267.979094,206.440946 268.112369,207.156615 268.112369,207.156615 C268.112369,207.156615 268.349303,206.754051 268.615854,206.754051 C268.669352,206.740786 268.725248,206.740786 268.778746,206.754051 C269.19338,207.022427 268.778746,207.454811 268.482578,208.110842 C267.924932,209.020766 267.599361,210.055386 267.534843,211.122619 L267.534843,211.122619 Z" id="Path" fill-rule="nonzero"></path>
                            <path d="M107.945122,272.968426 L121.657666,272.968426 C121.657666,272.968426 123.775261,272.968426 126.263066,272.968426 C128.808203,273.030923 131.354781,272.941307 133.889373,272.70005 C136.575783,272.166499 139.080088,270.944285 141.160279,269.15152 C143.574967,266.943182 145.036433,263.871811 145.232578,260.593301 C145.721254,255.896717 143.751742,249.291681 133.904181,246.369362 C133.904181,246.369362 138.983449,244.788924 140.079268,240.629093 C141.175087,236.469262 140.33101,233.248747 136.89547,231.086828 C133.45993,228.924908 128.647213,228.522344 125.878049,228.447795 C123.582753,228.447795 118.473868,228.358336 116.297038,228.358336 L114.949477,228.358336 C112.639373,228.358336 107.352787,228.045231 107.352787,228.045231 L108.344948,229.953684 L108.878049,229.953684 C109.840592,229.953684 111.839721,230.132601 112.017422,231.444663 L112.106272,235.917599 L112.254355,241.359673 L112.254355,245.832609 C112.254355,245.832609 112.254355,251.960533 112.254355,252.959489 C112.254355,253.958445 112.254355,257.894629 112.254355,257.894629 L112.254355,260.518752 C112.012823,261.821746 111.253252,262.968906 110.151568,263.694537 C110.361044,263.808441 110.594708,263.869814 110.832753,263.873455 C111.140469,263.87386 111.436862,263.756622 111.662021,263.545439 C111.333225,264.879178 110.26335,265.898154 108.922474,266.154653 C109.349804,266.334105 109.807089,266.430236 110.270035,266.437939 C110.827415,266.472272 111.370768,266.253442 111.750871,265.841547 C111.012521,267.535632 109.406975,268.682116 107.574913,268.823505 C108.073354,269.214408 108.690668,269.419833 109.3223,269.404987 C109.930026,269.397995 110.527972,269.250035 111.069686,268.972603 C111.069686,268.972603 111.069686,270.463582 108.330139,270.821417 C107.867954,270.875018 107.403356,270.904876 106.938153,270.910875 C105.368467,270.910875 105.0723,270.463582 105.0723,270.463582 C105.371286,271.848162 106.541348,272.868351 107.945122,272.968426 L107.945122,272.968426 Z M137.635889,258.207735 C137.635889,263.336702 136.391986,265.081148 136.391986,265.081148 C135.312282,267.559941 133.16101,269.401597 130.557491,270.075927 C129.308626,270.214184 128.052416,270.273939 126.796167,270.254845 L125.804007,270.254845 C125.122822,270.254845 123.405052,270.374123 121.820557,270.374123 L120.754355,270.374123 C120.27443,270.395045 119.814243,270.180274 119.519933,269.798014 C119.225623,269.415753 119.133761,268.913503 119.273519,268.45076 L119.273519,263.694537 L119.273519,249.30659 C119.273519,249.30659 119.155052,248.113807 120.206446,248.069078 L129.994774,248.069078 C134.585366,248.561101 137.62108,253.063857 137.635889,258.207735 L137.635889,258.207735 Z M119.243902,231.221016 C119.498971,231.049056 119.796105,230.951052 120.102787,230.93773 C120.102787,230.93773 121.405923,230.93773 123.434669,230.93773 L126.396341,230.93773 C128.316116,230.888833 130.181518,231.582479 131.608885,232.876002 C134.27439,234.963373 133.933798,240.032701 132.586237,242.477907 C131.105401,245.280947 126.662892,245.459865 126.662892,245.459865 C126.662892,245.459865 123.952962,245.459865 122.013066,245.459865 C121.420732,245.459865 120.917247,245.459865 120.53223,245.459865 C119.051394,245.459865 119.288328,243.968886 119.288328,243.342675 C119.288328,242.716463 119.140244,237.2893 119.140244,236.856916 C119.140244,236.424532 118.99216,232.011235 118.99216,232.011235 C119.000109,231.729149 119.087405,231.455127 119.243902,231.221016 Z" id="Shape" fill-rule="nonzero"></path>
                            <path d="M181.824042,233.979327 C181.932229,232.433513 181.842645,230.88011 181.557491,229.357292 C179.47135,229.0187 177.362184,228.844225 175.249129,228.835449 C171.858014,228.835449 166.127178,229.088916 164.290941,229.118735 L153.925087,229.118735 C153.095819,229.118735 145.94338,229.118735 145.94338,229.118735 L146.491289,230.699173 L146.491289,230.699173 C146.580139,230.699173 150.134146,230.699173 150.445122,233.114559 L150.445122,237.31912 L150.533972,243.283035 C150.533972,243.283035 150.622822,251.900894 150.533972,252.348187 C150.445122,252.795481 150.533972,257.82008 150.533972,257.82008 C150.533972,257.82008 150.297038,268.346392 150.297038,268.868234 L150.297038,269.658453 C150.297038,269.658453 150.415505,271.149432 147.779617,271.447628 L146.402439,271.537087 L146.002613,273.028065 L175.027003,273.028065 C176.261292,273.017115 177.435327,273.564373 178.22561,274.519044 L178.22561,270.61268 L178.966028,262.755221 L177.485192,263.560349 C177.485192,263.560349 176.50784,269.524265 173.649826,270.403943 L158.752613,270.403943 C158.382404,270.403943 157.464286,270.269754 157.523519,268.912964 C157.612369,266.855413 157.523519,261.547528 157.523519,261.547528 L157.523519,254.092633 L157.523519,249.619696 C157.554701,249.165534 157.930256,248.813483 158.382404,248.814567 L168.940767,248.814567 C169.281359,248.814567 170.821429,249.082944 170.880662,254.197001 L172.361498,254.882852 L172.361498,246.48864 C172.361498,246.48864 172.554007,242.298989 172.583624,241.866605 C172.61324,241.434222 172.716899,240.13707 172.716899,240.13707 L171.324913,240.86765 C171.324913,240.86765 170.954704,246.205354 168.985192,246.205354 L158.619338,246.205354 C158.619338,246.205354 157.70122,246.205354 157.70122,245.594053 C157.70122,244.982751 157.819686,234.978283 157.819686,234.978283 L157.819686,233.04001 C157.819686,233.04001 157.582753,231.787588 159.093206,231.757768 L159.77439,231.757768 C161.669861,231.757768 165.327526,231.862137 166.349303,231.906866 C167.37108,231.951595 172.272648,232.592716 172.43554,233.651311 C172.518131,233.419258 172.577656,233.179527 172.61324,232.935641 C172.625788,232.722121 172.625788,232.508041 172.61324,232.294521 C172.61324,232.294521 172.953833,232.473438 172.983449,232.547987 C173.286601,232.70107 173.611188,232.806655 173.945993,232.861093 C174.15331,232.861093 175.426829,233.338206 175.530488,234.42662 C175.796323,233.784457 175.741289,233.053041 175.382404,232.458528 C175.53474,232.475648 175.681409,232.526569 175.811847,232.607626 C176.083437,232.740916 176.365818,232.850652 176.655923,232.935641 C176.86324,233.01019 177.514808,233.01019 178.13676,234.814275 C178.370337,234.388004 178.544727,233.931484 178.655052,233.457484 C178.705059,233.001637 178.705059,232.541631 178.655052,232.085783 C179.837814,232.753179 180.530448,234.049139 180.432056,235.410667 C180.50036,237.081115 180.465741,238.754221 180.328397,240.420356 C181.293042,238.410824 181.803814,236.211172 181.824042,233.979327 L181.824042,233.979327 Z" id="Path" fill-rule="nonzero"></path>
                            <path d="M205.324913,271.507267 L205.028746,272.998246 L221.865854,272.998246 L221.495645,271.507267 L221.362369,271.507267 C219.989337,271.566915 218.666188,270.983384 217.778746,269.926829 C217.28723,269.16458 216.86118,268.361511 216.505226,267.526353 L214.432056,262.576303 L212.388502,257.760441 L210.330139,252.89985 L206.287456,243.357584 L202.170732,233.710951 C201.60758,232.657889 201.217513,231.519956 201.015679,230.341338 C201.125047,229.394777 201.374622,228.470049 201.756098,227.597937 C200.374531,228.025033 199.208423,228.969646 198.498258,230.23697 C198.305749,230.579895 196.736063,235.276478 196.736063,235.276478 L193.892857,243.521592 C193.892857,243.521592 192.189895,248.531281 192.101045,248.754928 C192.012195,248.978575 190.087108,254.718844 190.087108,254.718844 L185.00784,254.718844 L185.763066,256.209823 C186.993545,256.213815 188.207662,256.493956 189.317073,257.029861 C189.317073,257.029861 185.91115,266.959781 185.126307,269.404987 C184.503871,270.841161 183.031945,271.708677 181.483449,271.551996 L181.142857,271.551996 L180.772648,273.042975 L192.471254,273.042975 L192.115854,271.551996 L191.893728,271.551996 C190.957992,271.557324 190.026049,271.43188 189.124564,271.179252 C188.780645,271.103582 188.487104,270.879616 188.321736,270.566711 C188.156369,270.253806 188.135873,269.883555 188.265679,269.554085 L188.517422,268.719136 C188.517422,268.719136 191.197735,260.742399 191.804878,259.072503 C192.412021,257.402606 193.626307,257.342967 193.626307,257.342967 L204.125436,257.342967 C204.125436,257.342967 208.345819,267.511443 208.567944,267.973647 C209.07551,268.809131 208.966427,269.883032 208.301394,270.59777 C207.419556,271.188843 206.384282,271.505183 205.324913,271.507267 L205.324913,271.507267 Z M202.496516,254.420648 C202.378049,254.718844 201.948606,254.748664 201.815331,254.748664 L195.891986,254.748664 C195.395779,254.740927 194.923438,254.5329 194.580977,254.171273 C194.238515,253.809646 194.054617,253.324709 194.070557,252.825301 C194.559852,253.225827 195.17256,253.442007 195.803136,253.436602 C196.203791,253.438998 196.601097,253.363043 196.972997,253.212955 C196.326123,252.967872 195.77193,252.524609 195.388502,251.945623 C194.973868,251.334322 195.31446,249.888072 195.31446,249.888072 C195.626495,250.503068 196.208165,250.934021 196.884146,251.051036 C195.862369,250.245907 196.513937,245.653692 196.513937,245.653692 C196.636635,246.150459 196.973362,246.566048 197.432056,246.786836 C196.978161,245.288286 197.166024,243.667001 197.950348,242.313899 C197.950348,242.313899 202.318815,252.750752 202.466899,253.198045 C202.649956,253.582566 202.660737,254.0276 202.496516,254.420648 L202.496516,254.420648 Z" id="Shape" fill-rule="nonzero"></path>
                            <path d="M249.261324,262.412295 C249.261324,262.039551 249.424216,261.905363 249.66115,261.905363 C249.931554,261.912673 250.185493,262.037793 250.357143,262.248288 C249.745654,260.502296 248.566355,259.015448 247.010453,258.028817 C245.921055,257.302433 244.75367,256.702238 243.530488,256.239642 C243.530488,256.239642 242.627178,255.70289 243.441638,255.509063 C243.633538,255.487272 243.827263,255.487272 244.019164,255.509063 C244.372154,255.510432 244.722461,255.570896 245.055749,255.68798 C243.642861,254.391441 241.871049,253.559279 239.976481,253.302414 C236.304007,252.542015 229.610627,250.887028 228.129791,250.320456 C226.648955,249.753884 220.103659,247.785792 220.310976,242.462997 C220.310976,242.462997 220.90331,236.021968 228.899826,235.008102 C229.52288,235.003366 230.139447,235.135665 230.706446,235.395757 C231.78238,236.257785 233.046072,236.850525 234.393728,237.125292 C235.483123,237.250791 236.538649,237.5848 237.503484,238.109338 C238.317659,238.713913 239.203018,239.214712 240.139373,239.600317 C241.264808,239.898513 241.812718,241.449131 241.812718,241.449131 C241.812718,241.449131 242.020035,240.256348 242.020035,239.958152 C241.699562,239.282768 241.301989,238.647299 240.835366,238.064609 C240.702091,237.855872 239.79878,236.663089 239.887631,235.87287 C239.963187,234.897571 239.672547,233.929227 239.073171,233.159288 C238.238853,232.322456 237.32639,231.568512 236.348432,230.90791 C235.785714,230.564985 232.394599,227.851403 232.424216,226.047319 C232.312459,226.215105 232.232157,226.402075 232.187282,226.598981 C232.187282,226.807718 232.083624,227.165553 231.831882,227.165553 L231.831882,227.165553 C231.565331,227.165553 231.343206,226.285875 231.002613,225.823672 C230.69375,225.351085 230.185545,225.048476 229.625436,225.003633 L229.625436,225.003633 C229.625436,225.003633 230.114111,225.286919 230.069686,225.600025 C230.069788,225.681764 230.03656,225.759961 229.977773,225.816333 C229.918985,225.872705 229.839792,225.902308 229.758711,225.898221 C229.706373,225.918989 229.648157,225.918989 229.595819,225.898221 C229.096631,225.638247 228.554768,225.471544 227.996516,225.406198 L227.996516,225.406198 C227.996516,225.406198 229.210801,226.256056 229.166376,226.569161 C229.143721,226.713794 229.015328,226.817212 228.870209,226.807718 C228.767675,226.804509 228.668944,226.767885 228.58885,226.703349 C228.245254,226.454378 227.850534,226.286237 227.433798,226.211326 C226.915902,226.268416 226.394045,226.147567 225.952962,225.868401 L225.449477,225.495657 C225.538873,225.858685 225.711284,226.195659 225.952962,226.479703 C226.246748,226.698043 226.578103,226.859801 226.930314,226.956816 C227.137631,226.956816 228.040941,227.120824 228.011324,227.836493 C228.011324,228.179419 227.892857,228.283787 227.77439,228.283787 C227.610292,228.261 227.469924,228.15359 227.404181,228.000501 C227.2234,227.739261 226.920098,227.592226 226.60453,227.612847 L226.60453,227.612847 C226.384212,227.625783 226.164442,227.579469 225.96777,227.478659 C225.721219,227.28176 225.422454,227.162473 225.108885,227.135733 C224.857143,227.135733 224.220383,227.031365 224.116725,226.68844 C224.116725,226.68844 224.116725,227.240102 224.368467,227.433929 C224.51865,227.560837 224.688816,227.66162 224.871951,227.732125 C224.990418,227.732125 225.612369,228.224148 225.479094,228.641622 C225.150864,228.585999 224.819495,228.551141 224.486934,228.537254 L224.486934,228.537254 C224.146341,228.537254 223.61324,228.954728 223.154181,229.029277 C222.991588,229.043324 222.828098,229.043324 222.665505,229.029277 C222.492894,229.03964 222.319823,229.03964 222.147213,229.029277 C222.444675,229.259299 222.808735,229.384974 223.183798,229.387112 L223.731707,229.387112 C224.309233,229.387112 224.916376,229.47657 224.931185,230.162421 C224.758934,230.143457 224.585143,230.143457 224.412892,230.162421 L224.146341,230.162421 C223.776132,230.162421 223.657666,230.460616 223.139373,230.505346 C222.688747,230.501762 222.257924,230.691538 221.954704,231.027188 L222.280488,231.027188 C222.739547,231.027188 223.509582,231.027188 223.479965,231.429753 C223.450348,231.832317 222.53223,231.966505 221.999129,232.011235 C221.306211,232.038932 220.628221,232.222326 220.014808,232.547987 C220.014808,232.547987 220.962544,232.667265 220.932927,232.950551 C220.90331,233.233837 220.207317,233.517123 219.807491,233.710951 C219.3448,233.884263 218.932477,234.171279 218.608014,234.545899 C218.893899,234.437691 219.192589,234.367519 219.496516,234.337162 C219.600174,234.337162 219.674216,234.337162 219.703833,234.411711 C219.733449,234.48626 218.785714,235.351027 218.652439,235.410667 C218.123495,235.739132 217.627547,236.118635 217.171603,236.543811 C217.279914,236.532645 217.389075,236.532645 217.497387,236.543811 C217.545295,236.526756 217.597562,236.526756 217.64547,236.543811 C217.734321,236.543811 217.452962,236.886736 217.452962,236.886736 C216.34947,238.224571 215.623229,239.836336 215.350174,241.5535 C215.068199,243.358607 215.225731,245.205656 215.809233,246.935934 C216.621989,248.816438 217.877384,250.469353 219.466899,251.751796 C219.175096,251.967639 219.004258,252.311656 219.00784,252.676203 C219.110386,253.678834 219.771196,254.535092 220.710801,254.882852 C223.039858,255.735966 225.437892,256.384478 227.878049,256.821124 C231.506098,257.581524 236.851916,259.579435 239.487805,263.262153 C241.456321,266.015908 242.284681,269.432236 241.797909,272.789509 C241.797909,272.789509 241.486934,281.526646 235.326655,281.735383 L235.060105,281.735383 C233.505478,281.703772 231.981432,281.294576 230.617596,280.542599 C231.661281,282.248368 233.485878,283.312538 235.474739,283.375459 C234.469319,283.992177 233.304178,284.293244 232.128049,284.240227 C231.817432,284.261508 231.505738,284.261508 231.195122,284.240227 C227.344948,283.852573 226.752613,281.481916 226.752613,281.481916 C226.752613,281.481916 226.263937,284.01658 230.291812,285.954853 C230.291812,285.954853 230.010453,285.954853 229.49216,285.954853 C228.064959,285.93661 226.64621,285.731111 225.271777,285.343552 C221.153419,284.083958 217.1092,282.590589 213.158537,280.870615 C212.40331,280.587329 206.776132,278.932342 205.028746,278.410499 C203.369562,277.686368 201.674196,277.049362 199.949477,276.502046 L199.816202,276.502046 C199.697735,276.502046 199.56446,276.502046 199.816202,276.770423 C200.067944,277.038799 201.10453,277.948296 200.601045,277.948296 L200.601045,277.948296 C200.067944,277.948296 198.972125,277.128258 197.520906,276.830062 C196.946231,276.700715 196.361654,276.620907 195.773519,276.591505 C195.506969,276.591505 195.462544,276.591505 195.699477,276.725693 C196.199942,276.872943 196.667529,277.115931 197.076655,277.441363 C197.283972,277.6501 197.506098,278.112304 196.810105,278.112304 L196.810105,278.112304 C195.980836,278.112304 190.264808,278.857793 187.702962,279.394546 C185.020105,280.045182 182.284152,280.449403 179.528746,280.602239 C176.392803,280.48228 173.277003,280.04268 170.229094,279.290177 C169.469693,278.995367 168.671386,278.814518 167.859756,278.753425 C167.6003,278.747933 167.342714,278.798786 167.10453,278.902523 C167.10453,278.902523 170.273519,280.050576 170.45122,281.467006 C170.554878,282.257225 166.749129,282.734338 166.749129,282.734338 C165.129051,283.040747 163.492304,283.249853 161.847561,283.36055 L161.714286,283.36055 C160.799792,283.424036 159.882989,283.276139 159.033972,282.928166 C157.351703,282.150311 155.557185,281.647022 153.71777,281.437187 C153.71777,281.437187 152.99216,281.437187 152.236934,281.437187 L151.526132,281.437187 C151.526132,281.437187 155.820557,282.64488 155.820557,283.628926 C155.820557,284.612972 151.511324,284.821709 149.260453,284.821709 C147.009582,284.821709 139.0723,284.120949 137.058362,283.867482 C133.852951,283.495619 130.704907,282.729506 127.684669,281.586285 C124.900697,280.333862 118.222125,276.770423 113.202091,276.770423 C110.067986,276.798649 107.139952,278.347645 105.33885,280.930254 C107.28416,278.593518 110.174291,277.267337 113.202091,277.322085 C116.15745,277.481296 119.033962,278.339433 121.598432,279.82693 C124.477889,281.604801 127.567294,283.012319 130.794425,284.01658 C130.39981,284.037549 130.004371,284.037549 129.609756,284.01658 C129.029518,284.020755 128.449956,283.975868 127.877178,283.882392 C128.999113,284.689481 130.34866,285.112797 131.727352,285.090085 C134.304007,285.179544 135.81446,285.194454 135.81446,285.194454 C135.81446,285.194454 135.681185,285.969763 133.430314,286.029402 C131.179443,286.089041 130.912892,286.14868 130.912892,286.14868 L132.704704,286.610884 C133.894191,286.752404 135.090587,286.827068 136.288328,286.834531 L136.865854,286.834531 C137.858014,286.834531 140.523519,286.431966 140.834495,286.357417 L140.834495,286.357417 C141.041812,286.357417 140.834495,286.685433 140.834495,286.730162 C139.912789,287.198596 138.903969,287.467764 137.872822,287.520381 L137.79878,287.520381 C138.373904,287.804703 139.009423,287.942915 139.649826,287.922945 C141.385267,287.762218 143.101173,287.432664 144.773519,286.938899 C146.436682,286.656468 148.121886,286.526717 149.808362,286.551245 L150.430314,286.551245 C151.067073,286.551245 152.266551,286.551245 153.391986,286.551245 C154.162021,286.551245 154.872822,286.551245 155.479965,286.551245 C156.960801,286.431966 161.936411,285.895214 162.513937,285.775936 C163.138044,285.596181 163.777661,285.476367 164.424216,285.418101 C164.868467,285.418101 165.120209,285.567198 164.824042,286.044312 C164.128049,287.192366 159.315331,289.488473 158.722997,289.71212 C157.716498,289.972084 156.727306,290.295773 155.761324,290.681256 C155.657666,290.770715 155.761324,290.800535 155.924216,290.800535 C156.361601,290.773653 156.796853,290.718874 157.227352,290.636527 C157.227352,290.636527 160.189024,289.816488 161.270035,289.428834 C162.351045,289.041179 165.401568,287.281824 166.097561,286.953809 C166.793554,286.625794 169.059233,285.239183 169.325784,285.015536 L170.569686,284.150768 C170.569686,284.150768 174.049652,283.31582 175.012195,283.151813 C175.824096,282.988429 176.644948,282.873918 177.470383,282.808887 C177.796167,282.808887 178.003484,282.808887 177.973868,283.032534 C177.840592,283.956941 175.530488,285.194454 175.530488,285.194454 C176.26764,285.144037 177.000141,285.039389 177.722125,284.881348 C179.114111,284.568243 181.972125,282.674699 182.520035,282.674699 L182.520035,282.674699 C182.520035,282.674699 183.127178,282.779068 182.594077,283.539467 C182.225193,284.060345 181.780958,284.5227 181.276132,284.911168 C182.155944,284.739304 182.99835,284.411141 183.763937,283.942031 C185.012747,283.071744 186.385927,282.398048 187.836237,281.94412 C191.371851,281.210247 194.963973,280.786217 198.5723,280.676788 L199.445993,280.676788 C202.046955,280.831898 204.604193,281.421421 207.013066,282.421233 C211.070557,284.07622 216.016551,286.819621 217.37892,287.445832 C221.238054,289.419181 225.414776,290.686333 229.714286,291.188189 C230.262195,291.188189 230.780488,291.188189 231.283972,291.188189 C234.275172,291.225645 237.237875,290.599522 239.961672,289.354285 C239.961672,289.354285 239.517422,292.067867 234.393728,292.067867 L234.452962,292.067867 C235.176043,292.270593 235.92364,292.370955 236.674216,292.366062 C237.899439,292.38706 239.107332,292.072712 240.16899,291.456565 C242.085275,290.327555 243.685264,288.726868 244.818815,286.804711 C244.949533,286.474132 245.25207,286.244239 245.603659,286.208319 C245.944251,286.208319 246.181185,286.551245 246.047909,286.983628 C247.362445,285.859701 248.379976,284.425401 249.009582,282.808887 C250.046167,280.274223 250.297909,279.722561 250.594077,279.722561 L250.74216,279.722561 C251.008711,279.81202 250.949477,280.736427 250.949477,280.736427 C251.829918,279.144936 252.163116,277.305033 251.897213,275.503091 C251.64547,271.865102 251.408537,270.791597 252.060105,270.746868 L252.060105,270.746868 C252.667247,270.746868 252.874564,271.805463 252.874564,271.805463 C252.844131,270.131515 252.486882,268.479952 251.823171,266.944871 C250.74216,264.91714 249.350174,264.007643 249.261324,262.412295 Z" id="Path" fill-rule="nonzero"></path>
                            <path d="M281.558362,227.836493 C281.558362,227.836493 280.788328,229.327472 277.95993,229.327472 C275.131533,229.327472 265.787456,229.5213 265.180314,229.5213 L250.56446,229.342382 C249.093994,229.462105 247.65598,228.862989 246.699477,227.732125 L246.699477,237.945331 L248.180314,237.184932 C248.180314,237.184932 248.180314,232.711995 250.431185,231.832317 L259.316202,232.055964 L259.316202,232.055964 C259.612369,232.055964 260.797038,232.055964 260.797038,233.293476 C260.797038,234.530989 260.87108,267.585992 260.87108,267.585992 L260.87108,269.449716 C260.87108,269.449716 261.137631,271.462538 257.035714,271.462538 L256.635889,272.878968 L271.799652,272.878968 L271.370209,271.387989 C271.370209,271.387989 267.56446,271.223981 267.56446,269.539175 L267.56446,233.204018 C267.56446,233.204018 267.460801,232.070874 269.045296,232.070874 C270.629791,232.070874 277.323171,231.906866 277.323171,231.906866 L277.397213,231.906866 C277.722997,231.906866 278.344948,231.906866 278.581882,232.234881 C278.818815,232.562897 279.810976,233.591672 280.062718,237.170022 L281.469512,238.01988 L281.558362,227.836493 Z" id="Path" fill-rule="nonzero"></path>
                            <path d="M308.376307,248.740018 C303.933798,245.295857 296.810976,243.6856 294.722997,242.776103 C292.635017,241.866605 289.169861,239.898513 289.851045,235.097561 C290.339721,231.59376 293.982578,229.595849 297.344077,229.595849 C298.210523,229.587735 299.071962,229.72893 299.891115,230.013323 C299.891115,230.013323 307.295296,231.891956 307.117596,241.449131 L308.450348,242.403358 L310.79007,228.447795 L309.309233,228.850359 C308.904874,230.002493 308.341575,231.091636 307.635889,232.085783 C307.635889,232.085783 303.074913,227.493568 297.181185,227.493568 C291.287456,227.493568 285.082753,230.878091 284.060976,239.4214 C284.197854,239.345268 284.34933,239.299514 284.505226,239.287212 C284.622915,239.281998 284.734924,239.338386 284.801394,239.43631 C284.993902,239.749415 284.638502,240.569454 284.549652,240.733461 C284.23851,241.62252 284.151996,242.575563 284.297909,243.506682 C284.297909,243.506682 284.771777,242.567366 285.023519,242.537546 L285.023519,242.537546 C285.260453,242.537546 285.349303,243.163757 285.275261,243.342675 C285.096854,244.443668 285.240938,245.573146 285.689895,246.593009 C285.689895,246.593009 285.793554,245.400226 286.237805,245.400226 L286.237805,245.400226 C286.696864,245.400226 286.993031,246.339542 287.052265,246.637738 C287.39254,247.492826 287.942825,248.246955 288.651568,248.829477 C288.651568,248.829477 288.370209,247.711243 288.947735,247.636694 L289.051394,247.636694 C289.54007,247.636694 289.702962,248.054168 289.925087,248.203266 C291.068908,248.859516 292.293778,249.360841 293.567944,249.694245 C295.270906,250.141539 303.163763,252.601654 306.229094,258.058637 C308.442437,261.619859 307.820002,266.263691 304.748258,269.106791 C303.034516,270.894659 300.670754,271.901562 298.202962,271.894921 C297.707253,271.888617 297.212525,271.848768 296.722125,271.775643 C291.61324,270.970515 284.875436,267.928917 284.771777,258.729577 L283.498258,257.670982 L281.069686,272.759689 L282.654181,272.297486 C283.005421,270.896574 283.548673,269.551722 284.268293,268.301662 C284.268293,268.301662 285.749129,269.419896 285.897213,269.539175 C289.539407,272.533141 294.108425,274.147471 298.810105,274.10157 L299.283972,274.10157 C302.354994,273.946222 305.351608,273.095104 308.050523,271.611635 C311.788783,269.51018 314.14349,265.573913 314.240418,261.264242 C314.240418,255.225777 312.937282,252.19909 308.376307,248.740018 Z" id="Path" fill-rule="nonzero"></path>
                        </g>
                    </g>
                </g>
            </g>
        </g>
    </g>
</svg>
